<svg id="Layer_1" data-name="Layer 1" xmlns="http://www.w3.org/2000/svg" viewBox="0 0 423.09 167.98"><defs><style>.cls-1,.cls-7{opacity:0.15;}.cls-2,.cls-3,.cls-7{fill:#fff;}.cls-3{font-size:36.24px;font-family:Raleway-Regular, Raleway;}.cls-4{letter-spacing:-0.03em;}.cls-5{letter-spacing:-0.02em;}.cls-6{letter-spacing:-0.03em;}</style></defs><title>FINAL_YUPIT_DB(Slogan Change)</title><g id="_Group_" data-name="&lt;Group&gt;" class="cls-1"><path id="_Path_" data-name="&lt;Path&gt;" class="cls-2" d="M242.81,32c-.29-.3-.58-.58-.88-.86-7.93,4.91-15.15,10.51-19.12,19.22C227.28,42.14,234.79,36.83,242.81,32Z"/></g><path id="_Compound_Path_" data-name="&lt;Compound Path&gt;" class="cls-2" d="M275.51,41.8c-5.08-31.61-31.28-48-62.14-39.65-20.44,5.52-33.29,20.61-34.57,41.67-.65,10.74-.37,32.16-.36,32.33,0,11.5,0,23.92,0,35.42,0,1.52-.18,2.91,1.55,4,8.86,5.62,19.51,3.35,25.09-5.54a23.83,23.83,0,0,0,3.28-9c.63-3.23,1.27-4.51,4.71-4.78,1.06-.08,2.15,0,3.23,0,7.06,0,14.37,1.1,21.15-.29C264.37,90.43,279.74,68.19,275.51,41.8ZM225.88,70.54c-5.87,0-11.74.15-17.61.42-2,.09-2.78-.21-2.74-2.4.11-7.67-.45-15.38.18-23,.71-8.74,5.42-15.28,13.72-18.64A21.17,21.17,0,0,1,242.81,32C233.59,37.55,225,43.75,221,54.29c-.59,1.67-.59,1.67.59.49,2.52-2.55,5-5.15,7.59-7.62a38.16,38.16,0,0,1,11.18-7.74c7.48-3.17,7-3.43,8.32,4.59C251.4,60.11,242.26,70.44,225.88,70.54Z"/><path id="_Compound_Path_2" data-name="&lt;Compound Path&gt;" class="cls-2" d="M170.65,18.79c-1-8-12.13-9.57-16.91-6.26-4.12,2.85-4.48,9.53-5,14.52-1,10-3.29,20.21-9.37,28.41.52-5.34,1-10.75.13-16s-3.38-10.53-7.78-13.6-10.87-3.42-14.93.08c-5.61,4.84-4.36,13.76-2.16,20.83s4.7,15.31.5,21.42c9.85-2.39,15.43-13.49,11.94-23,6.13,6,5.81,16.29-.3,22.29s-15.78,7.3-24,5S87.54,64.59,81.51,58.5c-1-1-2-2.19-1.86-3.57a4.88,4.88,0,0,1,1.5-2.58L92,40.4c4-4.39,8.12-9,9.82-14.68A20.09,20.09,0,0,0,97,6.21,19.68,19.68,0,0,0,77.6,1.3C66.94,4.62,61.48,16.06,53.48,23.84a3.09,3.09,0,0,1-1.58,1c-1.06.17-2-.72-2.66-1.54L39.55,12C35.79,7.65,31.76,3.09,26.3,1.21A18.92,18.92,0,0,0,10.17,3.47C5,6.79.9,12.43.12,18.52c-.9,7.05,3.53,12.89,8,17.92L27.84,58.79A16.2,16.2,0,0,1,31,63.37a16.26,16.26,0,0,1,.75,6.1L31.69,92.3c0,7.38.26,15.59,5.44,20.85a19,19,0,0,0,11,5c6.48.89,13.61-.78,17.95-5.67,4-4.5,5-10.89,5.05-16.9s-.78-12.07.25-18c10.17,9.08,22,17.3,35.57,18.82,15.72,1.76,31.49-6.12,42-18a84.9,84.9,0,0,0,20.26-40.22C170.31,33.19,171.49,25.32,170.65,18.79ZM69.48,58.59A9,9,0,0,0,67,65.05c.1,8.47.06,24.28,0,32.76,0,9.25-6.81,16.38-15.43,16.29-9.3-.1-15.7-6.7-15.72-16.27,0-8.11-.13-23.56,0-31.67a11.77,11.77,0,0,0-3.29-8.72c-6.08-6.7-12-13.54-18-20.33-.83-1-.83-1,.38-.52A75.08,75.08,0,0,0,23.53,40c10.18,2.75,19.08-.19,26.94-6.75S64,18.16,70.63,10.5C77.1,3,86.14,2,93.67,8.4c6.53,5.52,6.9,14.82.66,22Q82,44.6,69.48,58.59Zm55.05-29.91c-.19,1.25-1.37.91-2.29.78-1.22-.17-2.26,0-2.11-1.6.09-1,1.76-1.14,2.67-1C123.93,27,124.64,27.15,124.53,28.68ZM135,43.14c-2.33.51-2.34-2.17-2.79-3.83-.83-3-2.15-5.75-4.77-7.64-.92-.66-1.84-1.33-1.12-2.54.87-1.45,2-.68,3-.09a13.72,13.72,0,0,1,6.7,9.5C136.34,40.38,137.65,42.54,135,43.14Z"/><text class="cls-3" transform="translate(113.86 159.9)"><tspan class="cls-4">F</tspan><tspan x="20.11" y="0">o</tspan><tspan class="cls-5" x="41.68" y="0">r</tspan><tspan x="53.53" y="0"> </tspan><tspan class="cls-6" x="62.77" y="0">F</tspan><tspan x="82.88" y="0">oodies</tspan></text><path id="_Path_2" data-name="&lt;Path&gt;" class="cls-2" d="M360.6,101.6c0,11.87,6.29,16.62,14.06,16.62,9.11,0,13.86-4.75,13.86-16.53,0-5.84.17-47,.17-72.56,0-3.22.91-3.92,3.92-3.79,5.74.23,11.5.16,17.24,0,6.5-.14,11.23-3.48,12.69-8.69C424.91,8.25,419.43,1,410.16.8c-9.5-.23-19-.08-28.51-.08-14,0-27.93,0-41.89,0-6.72,0-11.53,3.41-13,8.75-2.3,8.5,3.14,15.55,12.44,15.85,6,.2,12,.18,17.95,0,2.59-.08,3.39.59,3.36,3.28C360.54,62.22,360.6,69.22,360.6,101.6Z"/><path id="_Path_3" data-name="&lt;Path&gt;" class="cls-2" d="M286.62,108.82c0,6.4,6.45,9.41,14.61,9.41,6.83,0,14-2.89,14-9,0-18.66,0-39.78,0-58.44a11.55,11.55,0,0,0-.89-4.72c-1.75-4.11-7.21-6.82-13.58-6.8s-11.5,2.54-13.46,6.58a11.64,11.64,0,0,0-.88,5.2C286.44,60.21,286.62,99.39,286.62,108.82Z"/><path id="_Path_4" data-name="&lt;Path&gt;" class="cls-2" d="M300.85.21a16.05,16.05,0,0,0-16,15.86,12,12,0,0,1,3.24-5.51c4.82-4.91,12-6.07,17.5-1.93s-6.77-5.29-15.66,4.43c-6.95,7.62.41,15.19.69,15.52A16,16,0,1,0,300.85.21Z"/><path id="_Path_5" data-name="&lt;Path&gt;" class="cls-7" d="M289.92,13.06c-5.64,6.18-1.87,12.33-.09,14.6-1.13-1.53-4.36-6.95.6-13.51,4.62-6.12,10.91-5.74,14.21-5.06C301.34,8.23,295.06,7.43,289.92,13.06Z"/></svg>