<svg xmlns="http://www.w3.org/2000/svg" xmlns:xlink="http://www.w3.org/1999/xlink" width="180" height="180.022" viewBox="0 0 180 180.022">
  <defs>
    <linearGradient id="linear-gradient" x1="0.5" x2="0.5" y2="1" gradientUnits="objectBoundingBox">
      <stop offset="0" stop-color="#9c3"/>
      <stop offset="1" stop-color="#669b00" stop-opacity="0.8"/>
    </linearGradient>
  </defs>
  <g id="Group_1921" data-name="Group 1921" transform="translate(1051.83 -44.83)">
    <path id="Path_4201" data-name="Path 4201" d="M-891.041,135.948a70.8,70.8,0,0,1-70.8,69.716,70.832,70.832,0,0,1-70.823-70.823,70.832,70.832,0,0,1,70.823-70.823,71.085,71.085,0,0,1,22.132,3.519l15.05-14.7a89.537,89.537,0,0,0-37.182-8.012,90,90,0,0,0-89.989,90.011,90,90,0,0,0,89.989,90.011,90.028,90.028,0,0,0,90.011-88.9Z" transform="translate(0)" fill="url(#linear-gradient)"/>
    <path id="Path_4202" data-name="Path 4202" d="M-1019.355,105.511l26.99,26.988,76.5-76.5,14.7,14.7L-992.18,161.72l-41.32-41.32S-1019.355,104.394-1019.355,105.511Z" transform="translate(20.958 13.779)" fill="url(#linear-gradient)"/>
  </g>
</svg>
